<svg id="Capa_1" enable-background="new 0 0 512 512" height="512" viewBox="0 0 512 512" width="512" xmlns="http://www.w3.org/2000/svg"><g><path d="m82.886 356.115c-4.031 56.002 11.003 100.74 45.614 120.722 40.101 23.153 89.277 4.999 127.45-20.981 38.007 25.799 87.638 44.025 127.55 20.981 39.994-23.09 48.957-74.542 45.566-120.7 41.963-20.029 82.934-53.614 82.934-100.136 0-46.509-40.95-80.097-82.934-100.137 3.397-46.224-5.605-97.628-45.566-120.699-34.654-20.009-80.995-10.609-127.543 20.986-38.43-26.163-87.493-44.058-127.457-20.986-34.611 19.983-49.645 64.72-45.614 120.722-42.074 20.095-82.886 53.685-82.886 100.114 0 46.415 40.789 80.008 82.886 100.114zm56.201-167.614c-5.194 8.997-10.025 18.008-14.512 27-4.1-13.918-7.222-27.603-9.296-40.867 12.523-4.785 25.911-8.885 39.975-12.261-5.558 8.4-10.96 17.109-16.167 26.128zm25.98 15c10.02-17.355 20.922-33.717 32.451-48.826 18.855-2.42 38.466-3.674 58.482-3.674s39.627 1.254 58.482 3.674c11.529 15.109 22.431 31.471 32.451 48.826 10.017 17.349 18.734 34.966 26.052 52.5-7.319 17.534-16.036 35.15-26.052 52.5-10.02 17.354-20.922 33.717-32.451 48.826-18.855 2.42-38.466 3.674-58.482 3.674s-39.627-1.254-58.482-3.674c-11.529-15.109-22.431-31.471-32.451-48.826-10.017-17.35-18.734-34.966-26.053-52.5 7.319-17.534 16.037-35.15 26.053-52.5zm90.933-109.966c10.415 8.409 20.67 17.925 30.641 28.401-10.097-.62-20.325-.935-30.641-.935s-20.543.315-30.641.935c9.971-10.476 20.226-19.992 30.641-28.401zm100.739 68.835c14.067 3.377 27.457 7.477 39.982 12.263-2.075 13.267-5.197 26.953-9.298 40.874-4.51-9.053-9.35-18.07-14.51-27.006-5.172-8.958-10.574-17.679-16.174-26.131zm30.684 134.125c4.101 13.92 7.223 27.607 9.298 40.874-12.526 4.786-25.915 8.886-39.982 12.263 5.6-8.451 11.002-17.172 16.174-26.13 5.16-8.938 10-17.954 14.51-27.007zm-131.423 121.972c-10.415-8.409-20.67-17.925-30.641-28.401 10.098.62 20.325.935 30.641.935 10.315 0 20.543-.315 30.641-.935-9.971 10.475-20.226 19.992-30.641 28.401zm-116.913-94.966c5.206 9.017 10.604 17.729 16.16 26.127-14.062-3.376-27.447-7.475-39.969-12.26 2.074-13.265 5.196-26.949 9.296-40.867 4.488 8.992 9.319 18.003 14.513 27zm4.413 127.356c-21.091-12.177-32.288-42.092-31.156-82.617 21.24 7.482 44.465 13.211 68.951 17.054 15.834 19.626 32.476 36.813 49.37 51.212-34.544 21.263-66.066 26.532-87.165 14.351zm225 0c-21.112 12.19-52.661 6.906-87.231-14.392 17.133-14.609 33.745-31.85 49.354-51.159 24.517-3.842 47.77-9.576 69.033-17.067 1.132 40.526-10.065 70.441-31.156 82.618zm113.5-194.856c0 24.454-20.705 49.249-57.032 68.611-4.083-22.231-10.726-45.338-19.684-68.611 8.958-23.273 15.601-46.379 19.684-68.611 36.327 19.362 57.032 44.157 57.032 68.611zm-113.5-194.856c21.091 12.177 32.288 42.092 31.156 82.617-21.263-7.491-44.517-13.224-69.033-17.067-15.608-19.308-32.22-36.547-49.351-51.156 25.679-15.819 61.321-29.351 87.228-14.394zm-225 0c25.882-14.944 61.49-1.447 87.16 14.353-16.89 14.396-33.527 31.589-49.358 51.209-24.489 3.843-47.717 9.572-68.958 17.055-1.132-40.525 10.065-70.44 31.156-82.617zm-56.539 126.283c4.016 21.891 10.596 44.972 19.7 68.573-9.105 23.601-15.685 46.681-19.7 68.573-36.283-19.357-56.961-44.136-56.961-68.573 0-24.438 20.678-49.216 56.961-68.573z"/><path d="m256 334.636 61.817-61.818c17.544-17.544 17.544-46.091 0-63.635-17.059-17.059-44.214-17.509-61.817-1.722-17.606-15.79-44.762-15.335-61.817 1.722-17.544 17.544-17.544 46.091 0 63.635zm-40.604-104.24c5.848-5.847 15.361-5.847 21.209 0l19.395 19.396 19.396-19.396c5.848-5.847 15.361-5.847 21.209 0 5.866 5.868 5.865 15.342 0 21.209l-40.605 40.604-40.604-40.604c-5.865-5.865-5.866-15.342 0-21.209z"/></g></svg>